<svg xmlns="http://www.w3.org/2000/svg" width="14" height="10.881" viewBox="0 0 14 10.881">
  <path id="Path_11594" data-name="Path 11594" d="M55.8-799.889a.4.4,0,0,1-.3-.12.4.4,0,0,1-.119-.3.4.4,0,0,1,.119-.295.4.4,0,0,1,.3-.118H68.976a.4.4,0,0,1,.3.12.4.4,0,0,1,.119.3.4.4,0,0,1-.119.295.4.4,0,0,1-.3.118Zm1.353-1.649a.994.994,0,0,1-.728-.3.993.993,0,0,1-.3-.728v-7.169a.993.993,0,0,1,.3-.728.993.993,0,0,1,.728-.3H67.623a.993.993,0,0,1,.728.3.993.993,0,0,1,.3.728v7.169a.993.993,0,0,1-.3.728.994.994,0,0,1-.728.3Zm0-.828H67.623a.194.194,0,0,0,.14-.063.194.194,0,0,0,.063-.14v-7.169a.194.194,0,0,0-.063-.14.194.194,0,0,0-.14-.063H57.157a.194.194,0,0,0-.14.063.194.194,0,0,0-.063.14v7.169a.194.194,0,0,0,.063.14A.194.194,0,0,0,57.157-802.367Zm-.2,0v0Z" transform="translate(-55.39 810.77)" fill="#d9d9d9"/>
</svg>
