<svg xmlns="http://www.w3.org/2000/svg" width="12" height="14.182" viewBox="0 0 12 14.182">
  <g id="user_people_person_users_man" data-name="user people person users man" transform="translate(-5 -3)">
    <path id="Path_11601" data-name="Path 11601" d="M15.222,16.048a.546.546,0,0,0-.769.777,4.929,4.929,0,0,1,1.456,3.5c0,.667-1.915,1.641-4.909,1.641s-4.909-.974-4.909-1.641a4.929,4.929,0,0,1,1.435-3.484.545.545,0,0,0-.769-.771A5.98,5.98,0,0,0,5,20.325C5,22.1,8.093,23.06,11,23.06s6-.957,6-2.735A5.991,5.991,0,0,0,15.222,16.048Z" transform="translate(0 -5.878)" fill="#c4c4c4"/>
    <path id="Path_11602" data-name="Path 11602" d="M12.812,10.657A3.828,3.828,0,1,0,9,6.828,3.82,3.82,0,0,0,12.812,10.657Zm0-6.563a2.735,2.735,0,1,1-2.723,2.735A2.729,2.729,0,0,1,12.812,4.094Z" transform="translate(-1.812)" fill="#c4c4c4"/>
  </g>
</svg>
